<?xml version="1.0" encoding="UTF-8" standalone="no"?>
<!-- Created with Inkscape (http://www.inkscape.org/) -->

<svg
   xmlns:dc="http://purl.org/dc/elements/1.1/"
   xmlns:cc="http://creativecommons.org/ns#"
   xmlns:rdf="http://www.w3.org/1999/02/22-rdf-syntax-ns#"
   xmlns:svg="http://www.w3.org/2000/svg"
   xmlns="http://www.w3.org/2000/svg"
   xmlns:sodipodi="http://sodipodi.sourceforge.net/DTD/sodipodi-0.dtd"
   xmlns:inkscape="http://www.inkscape.org/namespaces/inkscape"
   width="210mm"
   height="297mm"
   viewBox="0 0 744.09448819 1052.3622047"
   id="svg2"
   version="1.1"
   inkscape:version="0.91 r13725"
   sodipodi:docname="icon.svg">
  <defs
     id="defs4" />
  <sodipodi:namedview
     id="base"
     pagecolor="#ffffff"
     bordercolor="#666666"
     borderopacity="1.0"
     inkscape:pageopacity="0.0"
     inkscape:pageshadow="2"
     inkscape:zoom="0.5"
     inkscape:cx="89.491583"
     inkscape:cy="680.68287"
     inkscape:document-units="px"
     inkscape:current-layer="layer1"
     showgrid="false"
     inkscape:window-width="1920"
     inkscape:window-height="1017"
     inkscape:window-x="-8"
     inkscape:window-y="-8"
     inkscape:window-maximized="1"
     showguides="false" />
  <metadata
     id="metadata7">
    <rdf:RDF>
      <cc:Work
         rdf:about="">
        <dc:format>image/svg+xml</dc:format>
        <dc:type
           rdf:resource="http://purl.org/dc/dcmitype/StillImage" />
        <dc:title></dc:title>
      </cc:Work>
    </rdf:RDF>
  </metadata>
  <g
     inkscape:label="Layer 1"
     inkscape:groupmode="layer"
     id="layer1">
    <path
       style="fill:#eab895;fill-opacity:1;fill-rule:evenodd;stroke:#000000;stroke-width:1px;stroke-linecap:butt;stroke-linejoin:miter;stroke-opacity:1"
       d="m 464.5484,633.53824 c -14.4978,-6.43578 -28.9916,-19.95636 -40.4618,-27.30874 -2.8892,-12.22027 -6.1467,-49.30817 4.7475,-68.36222 10.9895,-5.85179 20.4703,-15.72657 29.4516,-26.93365 l -72.3172,-40.67183 -82.3376,16.81981 c 25.5382,22.76671 9.7428,98.68827 3.2932,110.96449 -26.9734,13.61109 -55.6233,29.93022 -74.2462,30.05204 z"
       id="path4320"
       inkscape:connector-curvature="0"
       sodipodi:nodetypes="ccccccccc" />
    <path
       style="fill:#eab895;fill-opacity:1;fill-rule:evenodd;stroke:#000000;stroke-width:1px;stroke-linecap:butt;stroke-linejoin:miter;stroke-opacity:1"
       d="m 480.4178,417.48133 c 9.4415,92.11984 -47.6405,131.69615 -96.9747,124.75384 -80.1822,1.31273 -84.7838,-73.65146 -99.2474,-122.22846 1.5832,-115.83509 62.9988,-150.57144 106.066,-144.19928 55.8523,13.4858 103.3764,37.86234 90.1561,141.6739 z"
       id="path4322"
       inkscape:connector-curvature="0"
       sodipodi:nodetypes="ccccc" />
    <path
       style="fill:#111111;fill-opacity:1;stroke:none;stroke-width:1.48205733;stroke-linecap:round;stroke-linejoin:round;stroke-opacity:1"
       d="m 476.0477,371.38102 c -4.4392,-6.82763 -9.3552,-10.18378 -16.9367,-11.40757 l -27.1602,4.52575 c -4.5617,0.69874 -9.2463,1.87958 -12.9779,8.17542 -2.5919,10.08712 2.9656,4.6428 7.7147,0.73915 9.4415,-4.63505 18.7102,-4.91043 28.0136,-6.06183 10.4849,-0.70124 14.5475,2.494 21.3465,4.02908 z"
       id="path4334"
       inkscape:connector-curvature="0"
       sodipodi:nodetypes="ccccccc" />
    <path
       style="fill:#040302;fill-opacity:0.30952382;stroke:none;stroke-linecap:round;stroke-linejoin:round;stroke-opacity:1"
       d="m 365.712,308.88789 c 0,0 118.4403,67.5287 140.7142,135.41095 22.2739,67.88225 -0.3535,-103.9447 -0.3535,-103.9447 L 468.596,284.49271 Z"
       id="path4454"
       inkscape:connector-curvature="0" />
    <g
       transform="matrix(4.1407704,0.6321704,-0.6321704,4.1407704,-3961.1717,-1636.8008)"
       id="g4336"
       style="stroke:#000000">
      <path
         style="fill:#060d05;fill-opacity:1;fill-rule:evenodd;stroke:#000000;stroke-width:0.2;stroke-linecap:butt;stroke-linejoin:miter;stroke-miterlimit:4;stroke-dasharray:none;stroke-opacity:1"
         d="m 1075.0878,317.66571 c 14.8369,-3.41959 17.9304,0.0297 27.0468,0.28726 8.2791,-0.16205 11.9361,-3.6399 24.8372,-0.48614 0.9345,0.11462 1.6055,0.36101 1.37,1.06066 -0.091,0.76813 0.2157,1.97271 -0.3978,2.16552 -1.8688,0.70525 -2.4975,7.10948 -3.7565,8.08753 -2.2738,2.86846 -4.6075,3.09686 -6.9385,3.44715 -7.3276,0.12126 -8.6036,-1.90079 -10.474,-3.71231 -1.0317,-1.57905 -1.9394,-3.19532 -2.3865,-4.94975 -0.1172,-1.55819 -1.3318,-1.90751 -2.2097,-1.87825 -2.0113,-0.19187 -2.2029,0.70144 -2.6958,2.32019 -0.6873,1.99405 -1.7084,4.00201 -3.8007,6.0546 -2.1381,1.74134 -4.8447,2.5894 -8.2201,2.38649 -4.9808,-0.32424 -7.5113,-2.18418 -8.1318,-3.99958 -1.8896,-3.38043 -1.3802,-6.45777 -4.1542,-8.13173 z"
         id="path4338"
         inkscape:connector-curvature="0"
         sodipodi:nodetypes="cccccccccccccccc" />
      <path
         style="fill:#23481d;fill-opacity:1;fill-rule:evenodd;stroke:#000000;stroke-width:0.1;stroke-linecap:butt;stroke-linejoin:miter;stroke-miterlimit:4;stroke-dasharray:none;stroke-opacity:1"
         d="m 1078.9327,319.94171 c 1.7035,-2.70274 5.6341,-2.52342 9.2587,-2.74004 3.9508,0.14232 10.9865,0.45875 10.4961,4.86136 -1.0518,4.51377 -3.2069,7.62322 -6.8501,8.83883 -2.8446,0.27391 -5.0268,1.38009 -10.0321,-1.06066 -1.219,-1.38207 -3.3959,-4.31538 -2.8726,-9.89949 z"
         id="path4340"
         inkscape:connector-curvature="0"
         sodipodi:nodetypes="cccccc" />
      <path
         sodipodi:nodetypes="cccccc"
         inkscape:connector-curvature="0"
         id="path4342"
         d="m 1124.9133,320.03546 c -1.7035,-2.70274 -5.5403,-2.67967 -9.1649,-2.89629 -3.9508,0.14232 -10.9865,0.45875 -10.4961,4.86136 1.0518,4.51377 3.2069,7.62322 6.8501,8.83883 2.3271,0.42176 5.0159,1.38321 10.0321,-1.06066 1.3753,-1.56957 3.1771,-4.50288 2.7788,-9.74324 z"
         style="fill:#23481d;fill-opacity:1;fill-rule:evenodd;stroke:#000000;stroke-width:0.1;stroke-linecap:butt;stroke-linejoin:miter;stroke-miterlimit:4;stroke-dasharray:none;stroke-opacity:1" />
      <path
         style="fill:#438b37;fill-opacity:1;fill-rule:evenodd;stroke:#000000;stroke-width:0.0939992;stroke-linecap:butt;stroke-linejoin:miter;stroke-miterlimit:4;stroke-dasharray:none;stroke-opacity:1"
         d="m 1088.215,317.55931 c -0.9059,0.0541 -1.8299,0.0838 -2.7318,0.14321 9.5865,2.76462 9.6046,3.89054 10.5419,9.36319 0.9218,-1.34484 1.6037,-2.99466 2.0562,-4.93679 0.461,-4.13842 -6.1525,-4.43583 -9.8663,-4.56961 z"
         id="path4344"
         inkscape:connector-curvature="0" />
      <path
         inkscape:connector-curvature="0"
         id="path4346"
         d="m 1114.7238,317.66226 c -0.9059,0.0541 -1.1093,0.23822 -2.0112,0.29763 4.2333,1.42631 8.3693,4.40527 10.5419,9.36319 0.9218,-1.34484 0.8831,-3.14908 1.3356,-5.09121 0.461,-4.13842 -6.1525,-4.43583 -9.8663,-4.56961 z"
         style="fill:#438b37;fill-opacity:1;fill-rule:evenodd;stroke:#000000;stroke-width:0.0939992;stroke-linecap:butt;stroke-linejoin:miter;stroke-miterlimit:4;stroke-dasharray:none;stroke-opacity:1"
         sodipodi:nodetypes="ccccc" />
    </g>
    <path
       style="fill:#111111;fill-opacity:1;stroke:none;stroke-linecap:round;stroke-linejoin:round;stroke-opacity:1"
       d="m 346,349.3622 34.5,17 -48.5,-13 z"
       id="path4348"
       inkscape:connector-curvature="0" />
    <path
       style="fill:#21150b;fill-opacity:1;fill-rule:evenodd;stroke:none;stroke-width:1px;stroke-linecap:butt;stroke-linejoin:miter;stroke-opacity:1"
       d="m 431.1429,366.29078 c 15.7776,-9.76503 19.5271,-24.15621 23.2142,-38.57143 -5.8864,-16.14291 -12.925,-24.7967 -20.7142,-28.57143 -0.8283,13.19529 -11.4638,24.75603 -23.5715,36.07143 -30.4008,23.45576 -70.7903,55.30194 -79.2857,60.35714 20.1101,-26.25287 41.5177,-43.42409 62.5,-63.57143 -17.2909,6.06728 -33.5841,12.27711 -44.2857,19.28572 -29.9513,36.52012 -41.5626,44.00184 -56.0714,56.07142 -4.3643,26.38844 4.4862,50.64753 22.8571,64.64286 -4.7042,-0.38676 -11.4947,-3.10868 -18.3928,-9.99999 -0.01,5.53086 3.8252,14.04664 8.0357,22.85713 l -10.8929,-16.25 c 6.4051,24.07115 19.4039,36.3699 32.1429,55.89286 -14.3574,-15.85548 -32.8222,-24.20822 -46.25,-47.5 5.8654,13.14905 15.6912,29.62555 33.3928,50.53572 -10.4386,-8.68236 -26.225,-20.97247 -33.3928,-33.39286 4.4248,14.71081 20.5146,37.93179 18.5714,40.71428 -7.1398,-7.88548 -12.1089,-7.81217 -21.7857,-25 1.7689,10.88757 5.6321,21.77513 1.1589,32.6627 -7.3977,-9.28919 -9.3193,-15.53608 -12.7252,-22.60762 l 2.2952,14.84093 c -3.2864,-4.05551 -7.3235,-16.11463 -14.0548,-22.96056 0,0 11.7469,26.2082 6.2279,20.54817 -7.8251,-8.02509 -20.0739,-32.0209 -19.3993,-31.34633 0.4942,0 8.574,43.64207 3.3729,32.28084 1.2257,0.27936 -2.5279,-4.20979 -4.318,-3.6131 1.1372,-2.02169 -2.0909,-19.90636 -2.0909,-19.90636 0,0 0.7248,52.68038 -1.8719,-6.33415 -0.3321,-7.54594 -2.0941,-20.92746 -7.5608,-35.92528 -3.3643,-9.22983 -4.2535,30.4113 -6.3132,26.92296 -2.6589,-11.80179 -8.1776,-17.5659 1.373,-55.1432 l -13.5723,11.39589 c 4.9852,-9.56441 12.782,-21.53881 14.7546,-28.52097 l -13.3327,3.94774 c 5.4422,-2.65825 11.5611,-3.66852 15.2908,-9.30743 l -3.1788,-0.0743 4.2618,-3.36044 -7.9033,-0.0389 c 5.3212,-1.38703 8.0362,-3.71231 9.1541,-6.61254 0.253,-2.07252 -0.5291,-5.86215 -4.0059,-6.73742 l 5.9291,-0.0437 -5.9021,-1.96142 9.0053,-2.58158 c 24.3759,-41.35545 44.0314,-80.76718 83.6215,-128.38729 2.2902,-4.83902 -62.0584,73.7165 -65.3894,83.23365 21.9217,-30.6074 15.0231,-45.66824 66.094,-90.85022 0,0 47.4115,-26.67193 70.3317,-18.57862 21.1512,0.97013 18.9207,3.31566 28.376,4.97379 l 27.1064,-1.41393 c 38.4221,23.3911 87.1908,74.2088 92.7262,196.21628 20.4179,50.12591 8.8318,69.63961 2.1064,85.13201 2.6855,-9.99107 4.0048,-18.27441 4.7942,-25.89545 -4.22,13.35442 -8.388,26.95598 -14.462,31.50424 1.5867,-3.55506 3.3389,-7.0354 0.7609,-12.47028 -2.6013,2.1716 -3.5796,7.81812 -5.2676,11.94539 0.6939,-5.14379 1.4666,-11.30593 7.0557,-22.235 -21.7284,18.95942 -32.0354,32.92921 -65.6904,56.12063 4.1161,-4.5213 10.1551,-7.06964 12.1642,-13.39692 -11.7119,10.61124 -23.0576,14.18888 -32.8541,19.05361 13.4853,-12.96275 23.0102,-28.058 32.1922,-43.33787 -8.6836,9.26015 -16.0986,20.1514 -26.9084,26.67788 6.5393,-9.15388 11.8737,-18.1175 12.074,-26.27046 -3.0306,8.68609 -12.9712,18.52386 -26.0703,28.88805 3.7587,-6.33374 10.8891,-13.67895 8.5362,-18.1792 -7.0766,14.67591 -9.6637,13.63809 -13.6385,17.45782 0.8263,-4.59096 5.2001,-3.86081 1.843,-14.72688 -2.3226,9.65865 -6.2764,14.65663 -10.9475,17.60489 0.1086,-18.77944 29.4786,-61.38467 29.4786,-61.38467 22.7918,-36.0038 27.0934,-53.83672 28.5643,-76.09896 -5.007,37.0918 -25.5525,56.8828 -25.5525,56.8828 0,0 23.6347,-40.00408 25.721,-86.62145 l 3.3281,-59.22784 c -0.7999,26.52108 -4.2783,46.34617 -12.6818,53.85843 4.01,-15.74061 7.5749,-31.80071 -6.5841,-60.58571 1.2296,0.98366 -0.3589,30.09064 -4.5401,26.24782 0.038,0.51996 2.877,-12.96508 -0.7395,-18.80332 0.2477,15.29916 -11.6091,30.16947 -28.2142,33.57143 z"
       id="path4350"
       inkscape:connector-curvature="0"
       sodipodi:nodetypes="cccccccccccccccccccccssccccsscccccccccccccccccccccccccccccccccccccccccccccccc" />
    <path
       style="fill:#b3b3b3;fill-opacity:1;stroke:#999999;stroke-linecap:round;stroke-linejoin:round;stroke-opacity:1"
       d="m 315,565.3622 c 37.6909,12.99521 83.857,11.52311 106.5,8 -0.8991,12.06893 1.5193,24.77927 2.9697,32.67678 -34.5546,5.07099 -80.0073,7.58645 -117.4697,-8.17678 1.1853,-7.09549 5.1224,-19.76316 8,-32.5 z"
       id="path4356"
       inkscape:connector-curvature="0"
       sodipodi:nodetypes="ccccc" />
    <g
       id="g4360"
       transform="matrix(0.18080309,0.02063244,-0.0219221,0.17016656,196.0612,417.973)">
      <path
         sodipodi:nodetypes="csscsccssccccccc"
         inkscape:connector-curvature="0"
         id="path4297"
         d="m 917.8246,308.83942 c 27.88568,30.82601 53.26526,53.9992 91.286,70.34872 48.6505,20.92046 97.7661,23.86939 149.902,-0.60713 29.664,-13.92653 54.7885,-38.6406 87.6167,-70.44869 9.6378,-4.42131 29.9622,-11.09505 30.141,-26.1577 0.044,-3.70483 -9.2814,-7.42987 -9.2814,-7.42987 -8.2997,3.45157 -11.002,9.70182 -13.7886,15.9099 -10.2422,-3.92771 -13.5921,-7.91831 -22.0114,-10.58685 -23.2887,-7.38147 -45.7553,-14.38519 -58.607,-19.79913 -24.3575,-10.26087 -29.7571,-16.64399 -50.1963,-21.93992 -6.9778,-1.86105 -16.7308,9.08887 -39.2445,12.72792 -22.6535,-3.76594 -33.4061,-12.80591 -41.0122,-10.25305 -13.9519,-0.21411 -42.97139,25.57936 -51.9723,27.22361 -36.62118,18.63531 -50.92328,21.59333 -68.58935,27.57717 -5.74622,-5.50274 -11.37738,-11.81084 -18.03123,-10.96016 -6.51764,13.68864 4.22815,18.74557 13.78858,24.39518 z"
         style="fill:#ae3b34;fill-opacity:1;stroke:none;stroke-linecap:round;stroke-linejoin:round;stroke-opacity:1" />
      <path
         sodipodi:nodetypes="ccssccccccc"
         inkscape:connector-curvature="0"
         id="path4299"
         d="m 915,307.18555 c 0.94218,0.55087 1.88745,1.10072 2.82422,1.65429 27.88568,30.82601 53.26637,53.99814 91.28708,70.34766 48.6505,20.92046 97.7645,23.8691 149.9004,-0.60742 29.664,-13.92653 54.789,-38.63918 87.6172,-70.44727 0.4468,-0.20497 1.0142,-0.44294 1.5039,-0.6582 l -69.7759,3.97575 c -19.2652,-4.05212 -36.6262,-1.43972 -54.0581,0.92464 -24.6713,-3.67196 -35.4215,-1.01619 -50.5566,-0.35352 -43.3137,0.76311 -85.94467,2.20899 -134.70509,-2.4746 z"
         style="fill:#f2685e;fill-opacity:1;stroke:none;stroke-linecap:round;stroke-linejoin:round;stroke-opacity:1" />
      <path
         sodipodi:nodetypes="cccc"
         inkscape:connector-curvature="0"
         id="path4304"
         d="m 967.32208,322.62801 c 75.92272,14.48439 164.28352,21.80397 236.88072,-2.12132 -56.0357,73.83324 -90.6294,58.32475 -130.8147,66.11448 -79.1915,-10.07582 -95.48102,-36.30216 -106.06602,-63.99316 z"
         style="fill:#f5948e;fill-opacity:1;stroke:none;stroke-linecap:round;stroke-linejoin:round;stroke-opacity:1" />
      <ellipse
         transform="matrix(0.97665361,-0.21482022,0.21482022,0.97665361,0,0)"
         ry="12.574359"
         rx="25.842413"
         cy="592.84009"
         cx="1018.9672"
         id="path4306"
         style="fill:#fad4df;fill-opacity:1;stroke:none;stroke-linecap:round;stroke-linejoin:round;stroke-opacity:1" />
      <path
         id="path4308"
         d="m 1120.8418,237.92578 c -6.8747,0.33002 -16.7981,9.63375 -37.2012,12.93164 -22.6535,-3.76594 -33.4056,-12.80676 -41.0117,-10.2539 -13.9519,-0.21411 -42.97174,25.58035 -51.97265,27.2246 -35.62247,18.12711 -50.14357,21.43573 -67.16797,27.10938 4.7994,8.03767 13.52102,15.22334 59.74414,14.25586 l 51.61918,0.35352 c 24.3253,-11.15436 35.0934,-7.39853 50.9101,-9.19336 17.445,1.81857 35.2302,3.4246 48.084,8.13281 22.2388,0.12106 42.6149,1.30684 71.0645,-2.1211 22.5193,-1.68838 44.1191,-7.04945 47.8632,-16.28125 -9.5115,-3.80666 -12.9295,-7.63219 -21.0839,-10.21679 -23.2887,-7.38147 -45.7558,-14.38489 -58.6075,-19.79883 -24.3575,-10.26087 -29.758,-16.64352 -50.1972,-21.93945 -0.6542,-0.17448 -1.3318,-0.23727 -2.043,-0.20313 z"
         style="fill:#d5444b;fill-opacity:1;stroke:none;stroke-linecap:round;stroke-linejoin:round;stroke-opacity:1"
         inkscape:connector-curvature="0" />
      <path
         id="path4313"
         d="m 1120.8418,237.92578 c -6.8747,0.33002 -16.7981,9.63375 -37.2012,12.93164 -22.6535,-3.76594 -33.4056,-12.80676 -41.0117,-10.2539 -13.9519,-0.21411 -42.97174,25.58036 -51.97265,27.2246 -35.62247,18.12711 -50.14357,21.43573 -67.16797,27.10938 1.5741,2.63617 3.581,5.17776 7.1836,7.37305 12.1664,0.96842 15.10223,3.73053 57.86328,-1.25 14.72544,-6.79001 34.89464,-11.947 59.04294,-15.91016 21.4644,-2.2102 33.3929,-1.00716 49.4981,0.35547 7.7819,-5.35889 24.0905,-4.98625 35.0019,-7.7793 29.8404,6.17547 44.9903,10.51505 60.1035,14.84961 15.7951,4.86701 33.5153,4.92084 50.9317,5.73438 4.9006,-2.28116 8.3594,-5.01939 9.6601,-8.22657 -9.5115,-3.80666 -12.9295,-7.63219 -21.0839,-10.21679 -23.2887,-7.38147 -45.7558,-14.38489 -58.6075,-19.79883 -24.3575,-10.26087 -29.758,-16.64352 -50.1972,-21.93945 -0.6542,-0.17448 -1.3318,-0.23727 -2.043,-0.20313 z"
         style="fill:#f47063;fill-opacity:1;stroke:none;stroke-linecap:round;stroke-linejoin:round;stroke-opacity:1"
         inkscape:connector-curvature="0" />
    </g>
    <path
       style="fill:#3b2514;fill-opacity:1;stroke:none;stroke-linecap:round;stroke-linejoin:round;stroke-opacity:1"
       d="m 435,281.3622 33,37 -18,-38 32,41 -2,-18 c 0,0 29,74 20,98 -9,24 -22,101 -37,107 -15,6 18,-3 18,-3 0,0 22,-19 24,-33 2,-14 -10,55 -18,64 -8,9 50,-47 39,-64 -11,-17 3,-85 -8,-87 -11,-2 -16,-92 -35,-95 -19,-3 -41,-43 -52,-35 -11,8 -74,6 -74,6 0,0 -51,29 -55,55 -4,26 40,-14 40,-14 0,0 0,33 -6,39 -6,6 32,-39 29,-45 -3,-6 17,28 4,37 -13,9 80,-35 22,-49 -58,-14 19,-3 19,-3 z"
       id="path4448"
       inkscape:connector-curvature="0" />
    <path
       style="fill:#040302;fill-opacity:1;stroke:none;stroke-linecap:round;stroke-linejoin:round;stroke-opacity:1"
       d="m 293,333.3622 c -24.4997,19.36672 -40.9095,41.15143 -44,64 0,0 -10.9421,7.85484 -13.3986,26.33617 -3.1006,23.32641 2.9135,58.96849 12.3986,65.66383 17,12 7,-48 7,-48 0,0 8.909,69.20267 12,67 10.0464,-7.15908 9.7518,-52.70019 7.2308,-51.85984 -1.062,1.59293 13.4294,-24.6969 7.7692,-29.14016 -11.4529,-8.99056 7,-29 7,-29 6.2311,-39.99031 27.9937,-52.63976 32,-67 z"
       id="path4450"
       inkscape:connector-curvature="0"
       sodipodi:nodetypes="ccsscscsccc" />
    <path
       style="fill:#040302;fill-opacity:0.11309527;fill-rule:evenodd;stroke:none;stroke-width:1px;stroke-linecap:butt;stroke-linejoin:miter;stroke-opacity:1"
       d="m 289.0527,405.05469 -4.6992,10.46289 c -0.041,1.48381 -0.075,2.97694 -0.096,4.48828 8.2793,27.8066 13.3353,64.25474 31.1777,90.09766 5.7031,19.51683 1.3139,48.79582 -4.1558,67.89943 -2.9312,10.23729 -4.2934,20.04395 -4.2934,20.04395 -26.9734,13.6111 -55.6232,29.929 -74.2461,30.0508 l 176.2129,4.1347 C 413.3989,588.9622 360.0842,584.6352 398.8161,554.1836 426.801,532.18143 289.0524,405.05469 289.0524,405.05469 Z"
       id="path4543"
       inkscape:connector-curvature="0"
       sodipodi:nodetypes="ccccscccscc" />
    <path
       style="fill:#040302;fill-opacity:0.125;stroke:none;stroke-linecap:round;stroke-linejoin:round;stroke-opacity:1"
       d="m 295.0957,604.12109 c -23.2381,11.95362 -46.453,23.87256 -62.3555,23.97657 l 88.791,2.08398 c 0.1804,-0.44805 0.2983,-0.89156 0.3399,-1.32812 1.2075,-12.67819 -20.3954,-22.20053 -26.7754,-24.73243 z"
       id="path4553"
       inkscape:connector-curvature="0" />
    <g
       id="g4781"
       transform="translate(-1710,40)">
      <path
         style="fill:#414141;fill-opacity:0.35119048;stroke:none;stroke-linecap:round;stroke-linejoin:round;stroke-opacity:1"
         d="m 2114.5113,409.47298 c -1.9439,2.15579 -5.2606,3.04353 -5.2606,3.04353 -2.2322,-0.27257 -2.0661,0.16611 -2.9575,0.29116 -1.759,0.24675 -5.2965,-2.58839 -5.2965,-2.58839 0,0 -1.015,-0.91779 -3.9667,-0.27193 -6.1912,2.09199 -9.3153,5.1881 -6.5841,7.3749 7.8007,5.89621 6.8398,2.29524 6.869,2.24449 3.6271,-1.13655 4.3753,-0.80754 7.1781,0.60254 3.7582,0.47413 7.4352,0.84268 9.3755,-1.04464 l 2.8929,-0.80028 2.7061,-0.17729 3.8284,-3.29282 0.7369,-5.37803 -2.3786,-1.10221 -1.5097,-1.01554 c -2.2803,-0.15592 -5.6332,2.11451 -5.6332,2.11451 z"
         id="path4710"
         inkscape:connector-curvature="0"
         sodipodi:nodetypes="ccsccccccccccccc" />
      <path
         style="fill:#000000;fill-opacity:1;stroke:#000000;stroke-width:0.35608202;stroke-linecap:round;stroke-linejoin:round;stroke-opacity:1"
         d="m 2111.0894,376.32538 c 1.2369,6.62898 4.5039,13.21217 6.3511,17.05444 4.6283,5.39032 5.5596,9.78462 6.5904,14.20574 1.8135,5.7378 -3.1386,10.2593 -3.1386,10.2593 -0.8216,0.27775 -1.643,0.55397 -2.2364,-0.32766 5.2292,-2.72149 5.8324,-7.98785 4.4633,-10.42924 -0.096,-2.39354 -2.9671,-11.3733 -6.2274,-13.11134 -2.8576,-5.70802 -4.2951,-12.79658 -5.8024,-17.65124 z"
         id="path4712"
         inkscape:connector-curvature="0"
         sodipodi:nodetypes="cccccccc" />
      <path
         style="fill:#000000;fill-opacity:1;stroke:#000000;stroke-width:0.35608202;stroke-linecap:round;stroke-linejoin:round;stroke-opacity:1"
         d="m 2118.3156,411.75773 c 0,0 -9.8741,2.80019 -7.0325,5.68699 2.8415,2.8868 3.5873,-0.19993 4.3419,-0.45405 0.7546,-0.25412 5.5869,-4.99009 2.6906,-5.23294 z"
         id="path4714"
         inkscape:connector-curvature="0" />
      <path
         style="fill:#000000;fill-opacity:1;stroke:#000000;stroke-width:0.31783426;stroke-linecap:round;stroke-linejoin:round;stroke-opacity:1"
         d="m 2098.6043,412.9846 c 0,0 8.1664,3.12643 6.1489,4.47979 -2.0174,1.35337 -3.0859,0.72815 -3.881,0.75432 -0.7951,0.0262 -3.0018,1.0604 -4.0188,-0.38544 -1.017,-1.44584 -1.9117,-3.94077 1.7509,-4.84867 z"
         id="path4716"
         inkscape:connector-curvature="0"
         sodipodi:nodetypes="cczcc" />
      <path
         style="fill:#414141;fill-opacity:0.29166667;stroke:none;stroke-linecap:round;stroke-linejoin:round;stroke-opacity:1"
         d="m 2091.5471,406.61581 1.3156,-1.46796 c -0.2061,-1.43602 1.1178,-2.5892 -0.8292,-4.07291 -0.923,0.24264 -2.0808,-0.0963 -2.7039,0.88962 -4.1978,1.35584 -3.3942,3.38866 -5.3359,4.73753 -0.4262,0.89021 -0.7586,1.86191 0.1379,3.90231 -0.1536,2.81129 1.2244,4.6587 2.3497,6.66516 0.5267,0.69974 1.052,0.93189 1.5756,0.6246 l 1.0679,-0.69572 -1.1435,-3.39562 1.6216,-4.85195 z"
         id="path4722"
         inkscape:connector-curvature="0"
         sodipodi:nodetypes="cccccccccccc" />
      <path
         style="fill:#000000;fill-opacity:1;stroke:#000000;stroke-width:0.35608202;stroke-linecap:round;stroke-linejoin:round;stroke-opacity:1"
         d="m 2091.8887,405.26513 c -1.3195,1.24204 -2.8556,3.62161 -3.3536,5.04404 -0.5343,1.52598 -0.5656,5.70415 0.7764,6.73712 1.5228,1.17214 3.5975,2.69722 4.4489,3.03657 1.059,0.42212 3.7732,0.42476 3.7732,0.42476 0,0 0.2489,-0.94606 -1.01,-0.94217 -1.259,0.004 -2.9729,-0.63072 -2.9729,-0.63072 0,0 -5.3075,-1.85946 -4.8144,-5.26014 0.4931,-3.40068 1.1433,-5.26938 2.5237,-6.72143 1.3803,-1.45205 0.6287,-1.68803 0.6287,-1.68803 z"
         id="path4718"
         inkscape:connector-curvature="0"
         sodipodi:nodetypes="cssscsccsc" />
      <path
         inkscape:connector-curvature="0"
         id="path4733"
         d="m 2116.1733,407.22296 c 0,0 -7.7277,1.84605 -5.7946,-2.72433 1.933,-4.57038 0.6143,-7.82209 5.2949,-5.66467 4.6806,2.15742 0.4997,8.389 0.4997,8.389 z"
         style="fill:#f1d2bb;fill-opacity:1;stroke:none;stroke-linecap:round;stroke-linejoin:round;stroke-opacity:1" />
    </g>
  </g>
</svg>
